<?xml version="1.0" standalone="no"?>
<!DOCTYPE svg PUBLIC "-//W3C//DTD SVG 20010904//EN"
 "http://www.w3.org/TR/2001/REC-SVG-20010904/DTD/svg10.dtd">
<svg version="1.0" xmlns="http://www.w3.org/2000/svg"
 width="700.000000pt" height="700.000000pt" viewBox="0 0 700.000000 700.000000"
 preserveAspectRatio="xMidYMid meet">
<metadata>
Created by potrace 1.11, written by Peter Selinger 2001-2013
</metadata>
<g transform="translate(0.000000,700.000000) scale(0.100000,-0.100000)"
fill="#000000" stroke="none">
<path d="M2726 6989 c-700 -68 -1362 -377 -1850 -865 -457 -456 -743 -1035
-849 -1714 -30 -195 -30 -595 0 -790 87 -555 289 -1030 622 -1460 89 -115 354
-380 476 -476 470 -370 1035 -592 1640 -644 77 -6 859 -10 2178 -10 l2057 0 0
2985 0 2985 -2092 -1 c-1151 -1 -2133 -6 -2182 -10z m234 -2974 l0 -2485 -83
0 -83 0 -47 78 c-209 347 -352 928 -424 1725 -22 245 -25 1066 -5 1307 42 491
105 880 198 1215 61 217 162 464 242 587 l37 58 83 0 82 0 0 -2485z m820 0 l0
-2485 -245 0 -245 0 0 2485 0 2485 245 0 245 0 0 -2485z m910 0 l0 -2485 -245
0 -245 0 0 2485 0 2485 245 0 245 0 0 -2485z m900 0 l0 -2485 -245 0 -245 0 0
2485 0 2485 245 0 245 0 0 -2485z m890 0 l0 -2485 -235 0 -235 0 0 2485 0
2485 235 0 235 0 0 -2485z m-4241 2128 c-126 -366 -218 -872 -271 -1503 -20
-240 -17 -1061 5 -1310 37 -416 77 -688 148 -1010 33 -146 98 -382 124 -444
65 -156 -129 138 -226 341 -353 746 -462 1759 -288 2688 64 339 181 702 311
959 54 107 199 336 213 336 2 0 -5 -26 -16 -57z m-536 -180 c-425 -901 -521
-2119 -252 -3188 54 -214 164 -528 234 -665 14 -27 36 -75 50 -107 l25 -58
-46 50 c-358 392 -608 973 -689 1605 -25 192 -30 523 -11 720 62 653 295 1242
659 1669 42 50 79 91 82 91 2 0 -21 -53 -52 -117z m-542 -85 c-86 -138 -152
-266 -219 -423 -344 -809 -385 -1730 -115 -2570 88 -276 232 -582 375 -800 40
-61 -220 214 -295 313 -500 653 -672 1468 -476 2254 87 349 276 732 499 1013
53 66 277 305 286 305 1 0 -23 -42 -55 -92z"/>
<path d="M4737 753 c-4 -3 -7 -30 -7 -60 l0 -53 45 0 45 0 0 60 0 60 -38 0
c-21 0 -42 -3 -45 -7z"/>
<path d="M241 724 c-145 -39 -229 -152 -239 -323 -11 -199 73 -339 232 -386
106 -32 273 -11 364 45 l33 20 -3 153 -3 152 -127 3 -128 3 0 -46 0 -45 80 0
81 0 -3 -92 c-3 -90 -4 -93 -31 -106 -41 -20 -156 -27 -214 -13 -60 15 -116
58 -145 114 -17 33 -23 65 -26 144 -5 117 12 184 59 238 51 58 158 85 257 64
58 -11 145 -50 157 -69 14 -23 25 -7 25 40 0 48 -1 50 -40 70 -95 49 -225 62
-329 34z"/>
<path d="M3750 625 l0 -75 -35 0 c-33 0 -35 -2 -35 -35 0 -33 2 -35 34 -35
l34 0 4 -192 c4 -255 12 -267 181 -276 l87 -4 0 41 0 41 -70 0 c-109 0 -110 1
-110 215 l0 175 90 0 90 0 0 35 0 35 -90 0 -90 0 0 75 0 75 -45 0 -45 0 0 -75z"/>
<path d="M899 533 c-60 -31 -112 -92 -129 -151 -5 -20 -10 -71 -10 -112 1
-116 44 -195 135 -243 33 -18 57 -22 140 -22 56 0 121 6 148 14 47 14 47 14
47 57 0 24 -1 44 -2 44 -2 0 -27 -9 -56 -20 -71 -27 -179 -27 -232 0 -41 21
-71 67 -85 128 l-7 32 207 0 207 0 -7 63 c-8 77 -46 160 -88 191 -75 55 -181
62 -268 19z m199 -73 c33 -20 62 -71 62 -110 0 -19 -6 -20 -150 -20 -149 0
-150 0 -150 23 0 32 35 84 72 107 44 27 122 27 166 0z"/>
<path d="M1494 537 c-90 -43 -134 -128 -134 -257 0 -174 89 -280 236 -280 87
0 130 16 180 65 57 58 78 127 72 240 -5 106 -41 175 -113 220 -68 42 -167 47
-241 12z m184 -77 c48 -30 72 -88 72 -180 0 -133 -49 -200 -146 -200 -45 0
-59 5 -88 30 -44 39 -59 86 -59 176 1 93 37 166 93 187 34 12 96 6 128 -13z"/>
<path d="M2140 551 c-77 -24 -148 -90 -168 -160 -16 -50 -15 -173 0 -225 18
-59 100 -141 158 -156 53 -14 183 -8 223 10 22 11 27 20 27 52 0 21 -1 38 -3
38 -2 0 -25 -7 -51 -16 -63 -22 -166 -16 -203 12 -46 35 -68 90 -68 174 0 90
29 152 85 182 47 24 141 24 198 -2 l42 -19 0 44 0 44 -52 16 c-54 16 -145 19
-188 6z"/>
<path d="M2645 545 c-54 -19 -118 -91 -136 -152 -17 -61 -18 -164 0 -225 17
-59 72 -125 125 -149 54 -25 157 -25 211 0 53 24 111 90 126 143 17 59 17 173
0 232 -19 64 -90 140 -146 155 -54 15 -131 13 -180 -4z m165 -82 c15 -9 39
-35 52 -57 19 -34 23 -55 23 -126 0 -137 -46 -200 -145 -200 -99 0 -145 63
-145 200 0 71 4 92 23 126 13 22 36 48 50 57 35 21 106 22 142 0z"/>
<path d="M3310 549 c-14 -6 -40 -24 -57 -42 l-33 -31 0 37 0 37 -45 0 -45 0 0
-270 0 -270 45 0 45 0 0 178 c0 199 7 228 69 269 56 38 154 24 177 -24 5 -10
11 -108 14 -218 l5 -200 49 -3 48 -3 -3 203 c-4 194 -5 206 -29 253 -19 38
-36 56 -70 73 -47 24 -125 29 -170 11z"/>
<path d="M4205 545 c-27 -8 -53 -14 -57 -15 -5 0 -8 -20 -8 -43 l0 -44 53 18
c111 39 233 17 257 -47 23 -60 19 -64 -82 -64 -108 0 -160 -12 -207 -47 -45
-34 -64 -84 -59 -151 8 -93 63 -144 162 -150 76 -5 124 9 166 48 l30 28 0 -34
c0 -34 0 -34 45 -34 l45 0 0 198 c0 169 -3 203 -19 237 -22 50 -69 91 -119
105 -51 14 -147 11 -207 -5z m255 -302 c-1 -50 -32 -117 -64 -138 -63 -41
-148 -36 -186 12 -43 55 -12 136 60 153 19 4 70 8 113 9 l77 1 0 -37z"/>
<path d="M5174 541 c-22 -10 -50 -31 -62 -46 l-22 -28 0 42 0 41 -45 0 -45 0
0 -270 0 -270 44 0 44 0 4 183 c3 161 5 186 23 217 28 48 78 72 138 67 94 -8
107 -43 107 -289 l0 -178 45 0 45 0 0 188 c0 211 -11 270 -57 314 -16 15 -41
32 -56 37 -43 17 -117 13 -163 -8z"/>
<path d="M5751 546 c-48 -17 -108 -71 -133 -119 -30 -59 -37 -199 -13 -263 22
-58 66 -109 119 -137 35 -19 57 -22 146 -22 66 1 120 6 145 15 37 14 40 18 43
59 2 32 0 42 -10 38 -107 -45 -239 -49 -294 -10 -33 24 -60 70 -70 122 l-6 31
201 0 201 0 0 63 c0 108 -58 195 -149 226 -44 14 -136 13 -180 -3z m175 -85
c32 -20 64 -74 64 -110 0 -20 -4 -21 -154 -21 l-155 0 9 31 c22 77 77 119 155
119 31 0 62 -7 81 -19z"/>
<path d="M6394 541 c-22 -10 -50 -31 -62 -46 l-22 -28 0 42 0 41 -45 0 -45 0
0 -270 0 -270 44 0 44 0 3 178 c4 155 7 181 24 211 34 58 68 76 141 75 l64 -1
0 44 0 43 -52 0 c-30 0 -71 -9 -94 -19z"/>
<path d="M6695 545 c-77 -27 -119 -108 -96 -185 16 -55 57 -84 153 -109 109
-29 124 -35 144 -66 22 -34 5 -78 -39 -96 -44 -19 -146 -13 -209 11 -29 11
-54 20 -55 20 -2 0 -3 -20 -3 -44 0 -41 3 -45 33 -56 17 -7 77 -14 132 -17 95
-5 103 -4 154 24 83 43 111 116 77 197 -19 45 -65 71 -177 100 -123 32 -156
70 -110 127 30 38 166 40 254 4 16 -7 18 -3 15 36 -3 41 -5 44 -43 55 -55 17
-181 16 -230 -1z"/>
<path d="M4730 280 l0 -270 45 0 45 0 0 270 0 270 -45 0 -45 0 0 -270z"/>
</g>
</svg>
